
<svg width="512" height="512" viewBox="0 0 512 512" fill="none" xmlns="http://www.w3.org/2000/svg">
    <rect width="512" height="512" rx="96" fill="#0f172a"/>
    <g transform="translate(96, 96) scale(0.6)">
        <path d="M224 0C100.3 0 0 100.3 0 224C0 347.7 100.3 448 224 448C347.7 448 448 347.7 448 224C448 100.3 347.7 0 224 0ZM224 64C259.3 64 288 92.7 288 128C288 163.3 259.3 192 224 192C188.7 192 160 163.3 160 128C160 92.7 188.7 64 224 64ZM288 352H160V320H288V352ZM352 288H96V224H352V288Z" fill="#38bdf8"/>
    </g>
</svg>
